<svg id="Layer_1" data-name="Layer 1" xmlns="http://www.w3.org/2000/svg" viewBox="0 0 511.6314 506.2873"><defs><style>.cls-1{fill:#068342;}</style></defs><path class="cls-1" d="M235.07,65.2349c1.8762,16.8862-4.6906,25.2824-21.2485,28.1437C184.13,98.0692,133.2369,113.173,98.3387,158.4375,48.9465,222.4644,54.2938,283.9584,61.8926,314.87A24.86,24.86,0,0,1,47.07,344.9834h0a25.0477,25.0477,0,0,1-35.4142-16.2765C-29.8022,193.5561,46.1506,50.3861,181.3014,8.9277q9.3134-2.8569,18.8238-4.9992c18.3872-4.0808,28.5658,3.518,30.63,22.28Zm230.6846,279.983c17.2615,7.5519,28.9411,2.58,34.57-15.3852C542.3571,194.805,466.97,51.27,331.9417,9.2372Q322.747,6.3749,313.3567,4.21a25.095,25.095,0,0,0-31.8493,22.515h0A24.9541,24.9541,0,0,0,300.27,54.6341c30.5359,8.8653,86.495,34.992,117.2654,109.8543,21.7645,52.8164,9.3813,104.3194-1.4072,132.51-6.0039,15.9012-1.8762,25.6108,13.65,32.4122ZM71.9775,389.2159c-15.1507,11.1637-16.6987,23.7815-3.94,37.525C163.895,530.644,325.833,537.1662,429.7362,441.3085q7.1509-6.5971,13.7852-13.7233a25.0477,25.0477,0,0,0-3.6118-38.7914h0a24.86,24.86,0,0,0-33.491,2.2046c-23.031,22.14-73.5489,57.5539-153.8054,47-56.6158-7.74-94.9381-44.3733-114.0759-67.6387-10.7884-13.1807-21.2016-14.4472-34.8982-4.4092ZM179.44,202.3886a51.1747,51.1747,0,1,0,51.1747,51.1746h0A51.2216,51.2216,0,0,0,179.44,202.3886Zm153.4771,0A51.1746,51.1746,0,1,0,384.0443,253.61l0-.0469A51.1748,51.1748,0,0,0,332.9166,202.3886Z" transform="translate(-0.3333 -2.8564)"/></svg>